# xmcd
#
# Track frame offsets:
#	225
#	14725
#	32047
#	60916
#	73470
#	93553
#	122576
#	136595
#	154784
#	165784
#	183291
#
# Disc length: 2660 seconds
#
# Revision: 0
# Processed by: cddbd v1.4PL0 Copyright (c) Steve Scherf et al.
# Submitted via: dBpowerAMP V4.0
#
DISCID=890a610b
DTITLE=Bluer Than Blue  - Through the Storm
DYEAR=1900
DGENRE=Blues
TTITLE0=Read My Lips: No More Texas
TTITLE1=Turning Bad a Good Thing
TTITLE2=The Lights Are Out (in the House of Love)
TTITLE3=Hanging On
TTITLE4=Tough Enough For Two
TTITLE5=The Heart of Town is Broken
TTITLE6=I Don't Want to Hear About Yours
TTITLE7=The Right Somebody
TTITLE8=What Did I Do Wrong?
TTITLE9=(Feel Like) Going Home
TTITLE10=Old Time Shoes
EXTD=Artist: Bluer Than Blue \nAlbum: Through the Storm\nGenre: Blues\nComment: \nYear: 1996\n\n 1  Read My Lips: No More Texas   [3.13]\n 2  Turning Bad a Good Thing   [3.50]\n 3  The Lights Are Out (in the House of Love)   [6.24]\n 4  Hanging On   [2.
EXTD=47]\n 5  Tough Enough For Two   [4.27]\n 6  The Heart of Town is Broken   [6.26]\n 7  I Don't Want to Hear About Yours   [3.06]\n 8  The Right Somebody   [4.02]\n 9  What Did I Do Wrong?   [2.26]\n10  (Feel Like) Going Home   [3.53]\n11  Old Time S
EXTD=hoes   [3.36]\n\n\n
EXTT0=
EXTT1=
EXTT2=
EXTT3=
EXTT4=
EXTT5=
EXTT6=
EXTT7=
EXTT8=
EXTT9=
EXTT10=
PLAYORDER=
